Coordinates
version=1
nRows=10
nColumns=40
inDegrees=yes

Units are S.I. units (second, meters, Newtons, ...)
If the header above contains a line with 'inDegrees', this indicates whether rotational values are in degrees (yes) or radians (no).

endheader
time	pelvis_tilt	pelvis_list	pelvis_rotation	pelvis_tx	pelvis_ty	pelvis_tz	hip_flexion_r	hip_adduction_r	hip_rotation_r	knee_angle_r	knee_angle_r_beta	ankle_angle_r	subtalar_angle_r	mtp_angle_r	hip_flexion_l	hip_adduction_l	hip_rotation_l	knee_angle_l	knee_angle_l_beta	ankle_angle_l	subtalar_angle_l	mtp_angle_l	lumbar_extension	lumbar_bending	lumbar_rotation	arm_flex_r	arm_add_r	arm_rot_r	elbow_flex_r	pro_sup_r	wrist_flex_r	wrist_dev_r	arm_flex_l	arm_add_l	arm_rot_l	elbow_flex_l	pro_sup_l	wrist_flex_l	wrist_dev_l
      4.14000000	    -11.03269892	     -1.67484184	     -0.51737760	     -0.22388781	      1.19359780	     -0.94321821	     12.86743745	     -3.05752643	    -14.01472121	      8.44661754	      0.14742129	    -38.98178374	      0.00000000	      0.00000000	     13.12729718	     -3.22083166	    -22.33813559	      8.76136674	      0.15291470	    -38.82569999	      0.00000000	      0.00000000	     -6.60193085	      4.27949253	     -3.23791539	    -28.42932539	    -46.10857616	     31.99888091	     97.15092484	     87.09739407	      0.00000000	      0.00000000	    -17.45985513	    -46.01048310	     46.65939023	     87.72913295	     87.41243431	      0.00000000	      0.00000000
      4.14500000	    -11.00212375	     -1.68216052	     -0.47223313	     -0.22328469	      1.19984473	     -0.94324471	     12.58925587	     -2.94349874	    -13.79802456	      7.96571340	      0.13902793	    -38.94429029	      0.00000000	      0.00000000	     12.91974435	     -3.00883831	    -21.80434751	      8.57342926	      0.14963457	    -38.76984074	      0.00000000	      0.00000000	     -6.40995924	      4.29512578	     -3.29778904	    -28.10008191	    -46.27274728	     32.68547935	     96.92867568	     87.06843655	      0.00000000	      0.00000000	    -17.09667807	    -46.18722253	     47.59931591	     87.48651931	     87.38550175	      0.00000000	      0.00000000
      4.15000000	    -11.03000946	     -1.68955696	     -0.57869254	     -0.22243433	      1.20576006	     -0.94298629	     12.52058006	     -2.87774821	    -13.96022817	      7.79343196	      0.13602105	    -38.79617540	      0.00000000	      0.00000000	     12.78258289	     -2.93031704	    -21.78276065	      8.57618400	      0.14968265	    -38.70267615	      0.00000000	      0.00000000	     -6.19076707	      4.28298281	     -3.21080333	    -28.14178605	    -46.34188417	     32.79003474	     96.84161295	     87.07023271	      0.00000000	      0.00000000	    -17.28447785	    -46.26790143	     47.82081859	     87.32239750	     87.38852554	      0.00000000	      0.00000000
      4.15500000	    -10.73394159	     -1.96579345	     -0.31913278	     -0.22114195	      1.21200052	     -0.94307904	     11.79365746	     -2.56626686	    -14.93797985	      7.14861526	      0.12476687	    -38.77710065	      0.00000000	      0.00000000	     12.23077520	     -3.03986086	    -21.47257364	      8.34287884	      0.14561070	    -38.54535372	      0.00000000	      0.00000000	     -6.15537931	      4.59542735	     -3.41271622	    -27.59991455	    -46.56429626	     33.71220634	     96.58403778	     87.04165227	      0.00000000	      0.00000000	    -16.55680760	    -46.37888309	     49.22243164	     86.91876736	     87.33835384	      0.00000000	      0.00000000
      4.16000000	    -10.50850630	     -2.01617077	     -0.37129342	     -0.21979391	      1.21796665	     -0.94294666	     11.35035852	     -2.51128173	    -15.81747044	      6.89240551	      0.12029517	    -38.66220729	      0.00000000	      0.00000000	     11.71960434	     -3.01935726	    -21.79625502	      8.17927583	      0.14275529	    -38.34256147	      0.00000000	      0.00000000	     -6.12487464	      4.66689250	     -3.35304524	    -27.48815841	    -46.65611064	     33.95904732	     96.44652055	     87.03655962	      0.00000000	      0.00000000	    -16.42436067	    -46.32970994	     49.76159857	     86.56680954	     87.33357464	      0.00000000	      0.00000000
      4.16500000	    -10.22838206	     -2.01336908	     -0.22343483	     -0.21862423	      1.22376588	     -0.94344395	     10.87538572	     -2.61870630	    -17.16325263	      6.72216709	      0.11732395	    -38.56796481	      0.00000000	      0.00000000	     11.19632904	     -2.90323521	    -22.21498045	      8.04094402	      0.14034095	    -38.21596641	      0.00000000	      0.00000000	     -6.16257311	      4.70626927	     -3.50306926	    -27.31312903	    -46.81774659	     34.21840318	     96.41749336	     87.03957817	      0.00000000	      0.00000000	    -16.21499315	    -46.32376173	     50.28279351	     86.37131092	     87.31780077	      0.00000000	      0.00000000
      4.17000000	     -9.97412685	     -2.01726480	     -0.37562794	     -0.21721566	      1.22929078	     -0.94322146	     10.48471190	     -2.64712641	    -18.22506097	      6.67403594	      0.11648390	    -38.39613229	      0.00000000	      0.00000000	     10.59138476	     -2.89193384	    -23.00914086	      7.85249027	      0.13705181	    -37.96032679	      0.00000000	      0.00000000	     -6.13720321	      4.71355901	     -3.35719607	    -27.18046266	    -46.93364654	     34.44469979	     96.38410944	     87.03914812	      0.00000000	      0.00000000	    -16.11756006	    -46.29197915	     50.71108061	     86.16148802	     87.34345407	      0.00000000	      0.00000000
      4.17500000	     -9.79029076	     -1.93791703	     -0.27446542	     -0.21604130	      1.23459628	     -0.94379923	     10.13446163	     -2.85230582	    -19.46569032	      6.58704995	      0.11496571	    -38.17418531	      0.00000000	      0.00000000	     10.17964433	     -2.74265108	    -23.72612810	      7.84128842	      0.13685630	    -37.88706138	      0.00000000	      0.00000000	     -6.05936485	      4.68775480	     -3.46540007	    -27.12410472	    -47.10081585	     34.48738307	     96.42476587	     87.03439060	      0.00000000	      0.00000000	    -16.02438215	    -46.22534508	     50.89711520	     86.01073023	     87.31481842	      0.00000000	      0.00000000
      4.18000000	     -9.44863420	     -2.01416155	     -0.26002799	     -0.21481162	      1.23991398	     -0.94404391	      9.70966937	     -2.90473991	    -20.86263716	      6.75782075	      0.11794622	    -38.11551218	      0.00000000	      0.00000000	      9.58657385	     -2.80800535	    -24.70940532	      7.79776259	      0.13609663	    -37.61726113	      0.00000000	      0.00000000	     -6.16302712	      4.84092372	     -3.42213193	    -26.98425587	    -47.22613667	     34.58493031	     96.49161902	     87.03919635	      0.00000000	      0.00000000	    -15.86083020	    -46.15084095	     51.08211188	     85.83272510	     87.29714427	      0.00000000	      0.00000000
      4.18500000	     -9.11372507	     -1.90996647	     -0.34568074	     -0.21358979	      1.24505783	     -0.94417556	      9.33027672	     -3.12894612	    -21.87431248	      6.92960059	      0.12094435	    -38.09504475	      0.00000000	      0.00000000	      8.99947429	     -2.71169797	    -25.55655248	      7.83816227	      0.13680174	    -37.41373700	      0.00000000	      0.00000000	     -6.26428219	      4.73259672	     -3.38011714	    -26.86005508	    -47.32521578	     34.62301242	     96.55194128	     87.04144715	      0.00000000	      0.00000000	    -15.75957627	    -46.08544412	     51.22339945	     85.75004184	     87.31064864	      0.00000000	      0.00000000
